<svg xmlns="http://www.w3.org/2000/svg" viewBox="0 0 32 32">
  <rect width="32" height="32" rx="4" fill="#ff6600"/>
  <rect x="4" y="4" width="10" height="10" fill="white"/>
  <rect x="6" y="6" width="6" height="6" fill="#ff6600"/>
  <rect x="18" y="4" width="10" height="10" fill="white"/>
  <rect x="20" y="6" width="6" height="6" fill="#ff6600"/>
  <rect x="4" y="18" width="10" height="10" fill="white"/>
  <rect x="6" y="20" width="6" height="6" fill="#ff6600"/>
  <rect x="18" y="18" width="3" height="3" fill="white"/>
  <rect x="22" y="18" width="3" height="3" fill="white"/>
  <rect x="18" y="22" width="3" height="3" fill="white"/>
  <rect x="22" y="22" width="3" height="3" fill="white"/>
  <rect x="26" y="18" width="2" height="2" fill="white"/>
  <rect x="26" y="22" width="2" height="2" fill="white"/>
  <rect x="18" y="26" width="2" height="2" fill="white"/>
  <rect x="22" y="26" width="2" height="2" fill="white"/>
  <rect x="26" y="26" width="2" height="2" fill="white"/>
  <rect x="28" y="28" width="2" height="2" fill="white"/>
</svg>
